<?xml version="1.0" standalone="no"?><!DOCTYPE svg PUBLIC "-//W3C//DTD SVG 1.1//EN" "http://www.w3.org/Graphics/SVG/1.1/DTD/svg11.dtd"><svg t="1750989067168" class="icon" viewBox="0 0 1024 1024" version="1.1" xmlns="http://www.w3.org/2000/svg" p-id="2848" xmlns:xlink="http://www.w3.org/1999/xlink" width="16" height="16"><path d="M298.667 298.667v-128a42.667 42.667 0 1 1 85.333 0v170.666A42.667 42.667 0 0 1 341.333 384H170.667a42.667 42.667 0 1 1 0-85.333h128z m0 426.666h-128a42.667 42.667 0 0 1 0-85.333h170.666A42.667 42.667 0 0 1 384 682.667v170.666a42.667 42.667 0 0 1-85.333 0v-128z m426.666-426.666h128a42.667 42.667 0 0 1 0 85.333H682.667A42.667 42.667 0 0 1 640 341.333V170.667a42.667 42.667 0 0 1 85.333 0v128z m0 426.666v128a42.667 42.667 0 0 1-85.333 0V682.667A42.667 42.667 0 0 1 682.667 640h170.666a42.667 42.667 0 0 1 0 85.333h-128z" p-id="2849"></path></svg>