<?xml version="1.0" standalone="no"?><!DOCTYPE svg PUBLIC "-//W3C//DTD SVG 1.1//EN" "http://www.w3.org/Graphics/SVG/1.1/DTD/svg11.dtd"><svg t="1750989104743" class="icon" viewBox="0 0 1024 1024" version="1.1" xmlns="http://www.w3.org/2000/svg" p-id="3168" xmlns:xlink="http://www.w3.org/1999/xlink" width="16" height="16"><path d="M384 469.333h256a42.667 42.667 0 0 1 0 85.334H384a42.667 42.667 0 0 1 0-85.334zM213.333 128h597.334A85.333 85.333 0 0 1 896 213.333v597.334A85.333 85.333 0 0 1 810.667 896H213.333A85.333 85.333 0 0 1 128 810.667V213.333A85.333 85.333 0 0 1 213.333 128z m0 85.333v597.334h597.334V213.333H213.333z" p-id="3169"></path></svg>